<svg width="32" height="36" viewBox="0 0 32 36" fill="none" xmlns="http://www.w3.org/2000/svg">
<path d="M1 17.5424C1 14.6659 1 13.2277 1.58054 11.9635C2.16109 10.6992 3.25135 9.76325 5.43189 7.89127L7.5471 6.07538C11.4884 2.69179 13.4591 1 15.8065 1C18.1539 1 20.1245 2.69179 24.0658 6.07538L26.181 7.89127C28.3616 9.76325 29.4518 10.6992 30.0324 11.9635C30.6129 13.2277 30.6129 14.6659 30.6129 17.5424V26.5258C30.6129 30.5206 30.6129 32.518 29.3738 33.759C28.1348 35 26.1405 35 22.1521 35H9.46083C5.47236 35 3.47812 35 2.23906 33.759C1 32.518 1 30.5206 1 26.5258V17.5424Z" stroke="white" stroke-width="2"/>
<path d="M20.7419 35.0002V22.8389C20.7419 22.2866 20.2942 21.8389 19.7419 21.8389H10.7742C10.2219 21.8389 9.77417 22.2866 9.77417 22.8389V35.0002" stroke="white" stroke-width="2" stroke-linecap="round" stroke-linejoin="round"/>
</svg>
